<svg id="Capa_1" enable-background="new 0 0 512 512" fill="#FFFFFF" height="512" viewBox="0 0 512 512" width="512" xmlns="http://www.w3.org/2000/svg"><g><path d="m442.24 30h-87.85v-15c0-8.284-6.716-15-15-15h-166.78c-8.284 0-15 6.716-15 15v15h-87.85c-8.284 0-15 6.716-15 15v452c0 8.284 6.716 15 15 15h372.48c8.284 0 15-6.716 15-15v-452c0-8.284-6.716-15-15-15zm-254.63 0h136.78v30h-136.78c0-10.856 0-19.144 0-30zm239.63 452h-342.48v-422h72.85v15c0 8.284 6.716 15 15 15h166.78c8.284 0 15-6.716 15-15v-15h72.85z"/><path d="m346.58 144.394c-5.857-5.858-15.355-5.858-21.213 0s-5.858 15.355 0 21.213l12.529 12.529-12.529 12.529c-5.858 5.858-5.858 15.355 0 21.213 5.857 5.858 15.355 5.859 21.213 0l12.529-12.529 12.529 12.529c5.857 5.858 15.355 5.859 21.213 0 5.858-5.858 5.858-15.355 0-21.213l-12.529-12.529 12.529-12.529c5.858-5.858 5.858-15.355 0-21.213-5.857-5.858-15.355-5.858-21.213 0l-12.529 12.529z"/><path d="m284.543 163.136h-154.788c-8.284 0-15 6.716-15 15s6.716 15 15 15h154.788c8.284 0 15-6.716 15-15s-6.716-15-15-15z"/><path d="m392.851 251.394c-5.857-5.858-15.355-5.858-21.213 0l-12.529 12.529-12.529-12.529c-5.857-5.858-15.355-5.858-21.213 0s-5.858 15.355 0 21.213l12.529 12.529-12.529 12.529c-5.858 5.858-5.858 15.355 0 21.213 5.857 5.858 15.355 5.859 21.213 0l12.529-12.529 12.529 12.529c5.857 5.858 15.355 5.859 21.213 0 5.858-5.858 5.858-15.355 0-21.213l-12.529-12.529 12.529-12.529c5.858-5.858 5.858-15.356 0-21.213z"/><path d="m284.543 270.136h-154.788c-8.284 0-15 6.716-15 15s6.716 15 15 15h154.788c8.284 0 15-6.716 15-15s-6.716-15-15-15z"/><path d="m392.851 357.394c-5.857-5.858-15.355-5.858-21.213 0l-12.529 12.529-12.529-12.529c-5.857-5.858-15.355-5.858-21.213 0s-5.858 15.355 0 21.213l12.529 12.529-12.529 12.529c-5.858 5.858-5.858 15.355 0 21.213 5.857 5.858 15.355 5.859 21.213 0l12.529-12.529 12.529 12.529c5.857 5.858 15.355 5.859 21.213 0 5.858-5.858 5.858-15.355 0-21.213l-12.529-12.529 12.529-12.529c5.858-5.858 5.858-15.356 0-21.213z"/><path d="m284.543 376.136h-154.788c-8.284 0-15 6.716-15 15s6.716 15 15 15h154.788c8.284 0 15-6.716 15-15s-6.716-15-15-15z"/></g></svg>